<svg preserveAspectRatio="none" overflow="visible" style="display: block;" width="17.9554" height="17.9951" viewBox="0 0 17.9554 17.9951" fill="none" xmlns="http://www.w3.org/2000/svg">
<path id="Vector" fill-rule="evenodd" clip-rule="evenodd" d="M6.45076 3.45837C7.13613 2.00974 8.36889 0.892697 9.87785 0.352983C11.3868 -0.186731 13.0484 -0.104906 14.497 0.580458C15.9456 1.26582 17.0627 2.49858 17.6024 4.00755C18.1421 5.51651 18.0603 7.17807 17.3749 8.62671C17.2833 8.82588 17.2658 9.01421 17.3066 9.16587L17.4124 9.56254C17.7524 10.8325 16.5908 11.9942 15.3208 11.6542L14.9241 11.5484C14.7955 11.5182 14.6613 11.5225 14.5349 11.5609C14.3986 12.7122 13.9897 13.8144 13.3422 14.776C12.6947 15.7377 11.8272 16.5311 10.8117 17.0904C9.79621 17.6497 8.66198 17.9588 7.50312 17.9921C6.34427 18.0254 5.19418 17.7818 4.14826 17.2817C3.98612 17.197 3.79902 17.1731 3.62076 17.2142L2.5991 17.4875C1.3291 17.8275 0.167431 16.6659 0.507431 15.3959L0.780764 14.3742C0.821922 14.196 0.797981 14.0089 0.713264 13.8467C0.212579 12.7995 -0.0308797 11.648 0.00313137 10.4877C0.0371424 9.32751 0.347641 8.19217 0.908808 7.17612C1.46998 6.16007 2.2656 5.29267 3.22951 4.64604C4.19343 3.99941 5.29779 3.59223 6.45076 3.45837ZM7.90576 3.43504C9.65599 3.58256 11.2942 4.35688 12.5191 5.61567C13.7441 6.87446 14.4735 8.53311 14.5733 10.2867C14.7991 10.2648 15.0271 10.2831 15.2466 10.3409L15.6433 10.4467C15.721 10.4676 15.8029 10.4677 15.8807 10.4469C15.9585 10.4261 16.0295 10.3851 16.0864 10.3282C16.1434 10.2713 16.1843 10.2003 16.2051 10.1225C16.2259 10.0447 16.2259 9.96281 16.2049 9.88504L16.0991 9.48837C15.9683 8.99921 16.0533 8.51087 16.2374 8.10671C16.7395 7.01255 16.8113 5.76951 16.4385 4.62484C16.0658 3.48016 15.2758 2.51773 14.2258 1.92896C13.1758 1.3402 11.9426 1.16824 10.7716 1.4473C9.60051 1.72637 8.57742 2.43599 7.90576 3.43504ZM7.29326 4.66004C6.27245 4.65982 5.26822 4.91826 4.37433 5.41124C3.48044 5.90421 2.72603 6.61564 2.18153 7.47911C1.63704 8.34259 1.3202 9.32995 1.26061 10.349C1.20102 11.3681 1.40062 12.3857 1.84076 13.3067C2.05407 13.7376 2.10638 14.2306 1.98826 14.6967L1.71493 15.7184C1.69408 15.7961 1.69403 15.8779 1.7148 15.9556C1.73558 16.0333 1.77643 16.1041 1.83326 16.1611C1.89009 16.218 1.9609 16.2589 2.03858 16.2798C2.11625 16.3007 2.19805 16.3008 2.27576 16.28L3.29826 16.0067C3.76437 15.8886 4.25733 15.9409 4.68826 16.1542C5.50649 16.5447 6.40211 16.7461 7.30874 16.7433C8.21537 16.7406 9.10977 16.5339 9.92563 16.1385C10.7415 15.743 11.4579 15.169 12.0217 14.4591C12.5856 13.7491 12.9824 12.9213 13.1828 12.0371C13.3832 11.1529 13.382 10.2349 13.1794 9.35122C12.9767 8.46752 12.5778 7.64077 12.0121 6.93224C11.4464 6.22371 10.7286 5.65157 9.91169 5.25823C9.09482 4.86489 8.1999 4.66045 7.29326 4.66004Z" fill="currentColor"/>
</svg>
