<svg preserveAspectRatio="none" overflow="visible" style="display: block;" width="20" height="20" viewBox="0 0 20 20" fill="none" xmlns="http://www.w3.org/2000/svg">
<g id="user-plus_18875360 1">
<path id="Vector" d="M7.87476 8.52941C9.91439 8.52941 11.5832 6.83529 11.5832 4.76471C11.5832 2.69412 9.91439 1 7.87476 1C5.83513 1 4.16635 2.69412 4.16635 4.76471C4.16635 6.83529 5.83513 8.52941 7.87476 8.52941ZM7.87476 9.94118C4.44448 9.94118 1.47775 12.4824 1.0142 15.9647C0.921488 16.4353 1.29233 17 1.84859 17H1.9413H13.8082C14.3645 17 14.7353 16.6235 14.7353 16.0588V15.9647C14.2718 12.4824 11.305 9.94118 7.87476 9.94118ZM18.0729 7.58824H17.1458V6.64706C17.1458 6.08235 16.775 5.70588 16.2187 5.70588C15.6624 5.70588 15.2916 6.08235 15.2916 6.64706V7.58824H14.3645C13.8082 7.58824 13.4374 7.96471 13.4374 8.52941C13.4374 9.09412 13.8082 9.47059 14.3645 9.47059H15.2916V10.4118C15.2916 10.9765 15.6624 11.3529 16.2187 11.3529C16.775 11.3529 17.1458 10.9765 17.1458 10.4118V9.47059H18.0729C18.6292 9.47059 19 9.09412 19 8.52941C19 7.96471 18.6292 7.58824 18.0729 7.58824Z" fill="#B82F29"/>
</g>
</svg>
