<svg preserveAspectRatio="none" overflow="visible" style="display: block;" width="14.6111" height="11.25" viewBox="0 0 14.6111 11.25" fill="none" xmlns="http://www.w3.org/2000/svg">
<path id="Vector" fill-rule="evenodd" clip-rule="evenodd" d="M10.6389 0C10.7225 5.92759e-05 10.8053 0.0169063 10.8823 0.049543C10.9593 0.0821797 11.029 0.129942 11.0872 0.19L14.4205 3.6275C14.4808 3.68572 14.5286 3.75545 14.5614 3.83254C14.5941 3.90963 14.611 3.99252 14.6111 4.07627C14.6112 4.16002 14.5944 4.24294 14.5618 4.32009C14.5292 4.39723 14.4814 4.46704 14.4213 4.52537C14.3612 4.58369 14.29 4.62933 14.2119 4.65959C14.1338 4.68985 14.0504 4.7041 13.9667 4.7015C13.883 4.6989 13.8006 4.67951 13.7246 4.64446C13.6485 4.60942 13.5803 4.55944 13.5239 4.4975L11.2639 2.1675V10.625C11.2639 10.7908 11.198 10.9497 11.0808 11.0669C10.9636 11.1842 10.8046 11.25 10.6389 11.25C10.4731 11.25 10.3141 11.1842 10.1969 11.0669C10.0797 10.9497 10.0139 10.7908 10.0139 10.625V2.16667L7.75388 4.4975C7.6975 4.55944 7.62925 4.60942 7.55318 4.64446C7.47711 4.67951 7.39478 4.6989 7.31106 4.7015C7.22735 4.7041 7.14397 4.68985 7.06587 4.65959C6.98777 4.62933 6.91655 4.58369 6.85644 4.52537C6.79633 4.46704 6.74856 4.39723 6.71596 4.32009C6.68336 4.24294 6.66659 4.16002 6.66667 4.07627C6.66674 3.99252 6.68364 3.90963 6.71638 3.83254C6.74911 3.75545 6.797 3.68572 6.85721 3.6275L10.1905 0.19C10.2488 0.129942 10.3184 0.0821797 10.3954 0.049543C10.4725 0.0169063 10.5552 5.92759e-05 10.6389 0ZM3.97221 0C4.13797 0 4.29694 0.0658479 4.41415 0.183058C4.53136 0.300268 4.59721 0.45924 4.59721 0.625V9.08333L6.85721 6.7525C6.91359 6.69056 6.98184 6.64058 7.05791 6.60554C7.13398 6.57049 7.21631 6.5511 7.30003 6.5485C7.38374 6.5459 7.46712 6.56015 7.54522 6.59041C7.62332 6.62067 7.69454 6.66631 7.75465 6.72463C7.81476 6.78296 7.86253 6.85277 7.89513 6.92991C7.92773 7.00706 7.94449 7.08998 7.94442 7.17373C7.94435 7.25748 7.92745 7.34037 7.89471 7.41746C7.86198 7.49455 7.81409 7.56428 7.75388 7.6225L4.42055 11.06C4.36229 11.12 4.2926 11.1677 4.21559 11.2002C4.13858 11.2328 4.05582 11.2495 3.97221 11.2495C3.8886 11.2495 3.80584 11.2328 3.72884 11.2002C3.65183 11.1677 3.58213 11.12 3.52388 11.06L0.190545 7.6225C0.130336 7.56428 0.0824419 7.49455 0.0497089 7.41746C0.0169759 7.34037 7.17417e-05 7.25748 2.27859e-07 7.17373C-7.12859e-05 7.08998 0.0166914 7.00706 0.0492927 6.92991C0.0818939 6.85277 0.129669 6.78296 0.189779 6.72463C0.249889 6.66631 0.321107 6.62067 0.399205 6.59041C0.477302 6.56015 0.560684 6.5459 0.644397 6.5485C0.728111 6.5511 0.810447 6.57049 0.886517 6.60554C0.962586 6.64058 1.03084 6.69056 1.08721 6.7525L3.34721 9.0825V0.625C3.34721 0.45924 3.41306 0.300268 3.53027 0.183058C3.64748 0.0658479 3.80645 0 3.97221 0Z" fill="currentColor"/>
</svg>
