<svg preserveAspectRatio="none" overflow="visible" style="display: block;" width="104.743" height="76.1763" viewBox="0 0 104.743 76.1763" fill="none" xmlns="http://www.w3.org/2000/svg">
<g id="Vector">
<path d="M1.82869 75.8686C0.0322525 75.1568 -0.611752 72.3096 0.676257 70.6826C1.52363 69.598 4.67587 67.5982 8.74327 65.5645C11.7599 64.0392 11.8616 63.9714 11.6243 63.0563C11.4888 62.5478 11.3871 57.1924 11.3532 51.1252C11.3532 42.1769 11.4888 39.3975 11.9633 36.2114C13.1157 28.8562 14.7088 23.9075 17.4882 19.0944C23.1486 9.33268 31.5885 3.26547 43.0789 0.757245C46.9768 -0.0901303 55.0099 -0.259605 59.3824 0.418295C74.2962 2.75705 85.2443 11.7731 90.498 26.009C92.9384 32.6185 94.0909 42.8548 93.718 54.6842C93.6163 58.2432 93.4469 61.836 93.3452 62.7173L93.2096 64.2765L96.7008 66.1407C101.412 68.6489 103.887 70.3098 104.361 71.3266C105.039 72.818 104.802 74.1399 103.751 75.2246C102.192 76.7498 101.175 76.5804 95.5484 73.6993C85.5832 68.5811 76.7366 65.7001 65.9241 64.107C60.162 63.2596 44.5364 63.2596 38.9776 64.107C27.6567 65.8356 17.217 69.2251 7.59084 74.3772C4.16744 76.2075 3.21838 76.4448 1.82869 75.8686ZM21.8606 60.6158C25.8263 59.3617 30.7411 58.1754 35.2492 57.3958C38.0285 56.9213 47.1802 55.9044 48.9088 55.8705C49.4512 55.8705 49.4851 55.0231 49.4851 42.8209V29.7375L50.3324 28.924C51.5865 27.636 53.5525 27.7377 54.7049 29.1274L55.5862 30.1781V42.9904V55.8366L57.3826 56.0061C58.3316 56.1078 60.2976 56.2773 61.6873 56.3789C68.6696 56.9213 78.4314 58.9211 84.702 61.0903C86.0917 61.5649 87.3119 61.9038 87.3797 61.8021C87.7525 61.4293 88.1254 50.3117 87.9559 45.3631C87.583 35.7708 86.5323 30.4154 84.058 25.0939C80.4651 17.4336 74.4318 11.5359 67.246 8.62088C55.9929 4.04506 41.6553 5.23138 32.0291 11.502C24.5044 16.3828 19.793 24.1787 17.8949 34.8556C17.3187 38.1434 17.217 40.2788 17.1831 48.4136C17.1492 58.5143 17.3865 62.1411 18.0644 61.8699C18.3017 61.8021 19.9964 61.2259 21.8606 60.6158Z" fill="currentColor"/>
</g>
</svg>
