<svg preserveAspectRatio="none" overflow="visible" style="display: block;" width="12" height="12" viewBox="0 0 12 12" fill="none" xmlns="http://www.w3.org/2000/svg">
<g id="night" opacity="0.5">
<path id="Vector" d="M4.9025 10.8295C6.839 11.3485 9.161 10.557 10.3925 9.0135C10.4504 8.94094 10.4869 8.85371 10.498 8.76157C10.5091 8.66943 10.4943 8.57602 10.4554 8.49179C10.4164 8.40757 10.3547 8.33585 10.2773 8.28467C10.1999 8.23349 10.1098 8.20487 10.017 8.202C8.025 8.143 6.686 7.4595 5.932 6.153C5.177 4.8465 5.255 3.345 6.1995 1.5905C6.24356 1.50872 6.26396 1.41629 6.25842 1.32357C6.25288 1.23084 6.22162 1.14149 6.16815 1.06554C6.11468 0.989586 6.0411 0.930029 5.95567 0.893549C5.87025 0.857069 5.77635 0.845107 5.6845 0.859004C3.7325 1.154 1.886 2.769 1.367 4.706C0.652005 7.373 2.2355 10.115 4.9025 10.8295Z" fill="currentColor"/>
</g>
</svg>
